<svg width="1920" height="192" viewBox="0 0 1920 192" fill="none" xmlns="http://www.w3.org/2000/svg">
<path d="M1535 53H1878.36L2047 180H1535V53Z" fill="#517CCE"/>
<path d="M1225 53H1583.79L1760 192H1225V53Z" fill="#3269D3"/>
<path d="M977 53H1304.27L1465 192H977V53Z" fill="#2B63CE"/>
<path d="M623 53H981.785L1158 192H623V53Z" fill="#275EC6"/>
<path d="M355 53H664.829L817 181H355V53Z" fill="#1E57C5"/>
<path d="M0 -6H358.785L535 162H0V-6Z" fill="#B1C3E5"/>
<rect y="162" width="535" height="30" fill="#B1C3E5"/>
<rect x="535" y="162" width="259" height="30" fill="#1E55BE"/>
<rect x="794" y="162" width="326" height="30" fill="#1E55BE"/>
<rect x="1120" y="162" width="311" height="30" fill="#1E55BE"/>
<rect x="1431" y="162" width="313" height="30" fill="#1E55BE"/>
<rect x="1744" y="162" width="279" height="30" fill="#1E55BE"/>
<path d="M122.555 126H88.2773V66H122.555V70.3066H126.832V74.584H131.109V78.8613H135.416V113.168H131.109V117.445H126.832V121.723H122.555V126ZM96.832 117.445H118.277V113.168H122.555V108.861H126.832V83.168H122.555V78.8613H118.277V74.584H96.832V117.445ZM152.496 126H143.941V66H182.496V70.3066H186.773V74.584H191.08V93.8613H186.773V98.168H182.496V102.445H186.773V106.723H191.08V126H182.496V111H178.219V106.723H173.941V102.445H152.496V126ZM152.496 93.8613H178.219V89.584H182.496V78.8613H178.219V74.584H152.496V93.8613ZM208.16 126H199.605V66H208.16V126ZM244.576 126H231.715V117.445H227.408V104.584H223.131V91.7227H218.854V78.8613H214.576V66H223.131V78.8613H227.408V91.7227H231.715V104.584H235.992V113.168H240.27V104.584H244.576V91.7227H248.854V78.8613H253.131V66H261.715V78.8613H257.408V91.7227H253.131V104.584H248.854V117.445H244.576V126ZM310.992 126H268.16V66H310.992V74.584H276.715V89.584H306.715V98.168H276.715V117.445H310.992V126Z" fill="#1E55BE"/>
<path d="M563.201 129H546.951V126.683H544.634V124.366H542.317V119.717H546.951V122.049H549.268V124.366H560.884V122.049H563.201V117.4H560.884V115.083H549.268V112.75H544.634V110.433H542.317V101.15H544.634V98.8328H546.951V96.5H563.201V98.8328H565.518V101.15H567.85V105.799H563.201V103.467H560.884V101.15H549.268V103.467H546.951V108.116H549.268V110.433H560.884V112.75H565.518V115.083H567.85V124.366H565.518V126.683H563.201V129ZM588.718 129H577.102V126.683H574.785V124.366H572.468V110.433H574.785V108.116H577.102V105.799H588.718V108.116H591.035V110.433H593.352V124.366H591.035V126.683H588.718V129ZM579.419 124.366H586.385V122.049H588.718V112.75H586.385V110.433H579.419V112.75H577.102V122.049H579.419V124.366ZM602.62 129H597.986V96.5H602.62V108.116H604.937V105.799H614.236V108.116H616.553V110.433H618.87V124.366H616.553V126.683H614.236V129H604.937V126.683H602.62V129ZM604.937 124.366H611.903V122.049H614.236V112.75H611.903V110.433H604.937V112.75H602.62V122.049H604.937V124.366ZM628.137 129H623.503V105.799H628.137V108.116H630.454V105.799H636.262V110.433H630.454V112.75H628.137V129ZM654.861 129H643.245V126.683H640.928V124.366H638.611V110.433H640.928V108.116H643.245V105.799H654.861V108.116H657.178V110.433H659.495V118.558H643.245V122.049H645.562V124.366H652.528V122.049H659.495V124.366H657.178V126.683H654.861V129ZM643.245 115.083H654.861V112.75H652.528V110.433H645.562V112.75H643.245V115.083Z" fill="white"/>
<path d="M809.951 129H805.317V96.5H823.884V98.8328H826.201V101.15H828.518V112.75H826.201V115.083H823.884V117.4H809.951V129ZM809.951 112.75H821.567V110.433H823.884V103.467H821.567V101.15H809.951V112.75ZM836.674 129H832.041V105.799H836.674V108.116H838.991V105.799H844.799V110.433H838.991V112.75H836.674V129ZM863.398 129H851.782V126.683H849.465V124.366H847.148V110.433H849.465V108.116H851.782V105.799H863.398V108.116H865.715V110.433H868.032V124.366H865.715V126.683H863.398V129ZM854.099 124.366H861.065V122.049H863.398V112.75H861.065V110.433H854.099V112.75H851.782V122.049H854.099V124.366ZM888.916 138.283H877.299V135.951H874.982V133.634H872.666V131.317H879.616V133.634H886.583V131.317H888.916V126.683H886.583V129H877.299V126.683H874.982V124.366H872.666V110.433H874.982V108.116H877.299V105.799H886.583V108.116H888.916V105.799H893.549V133.634H891.232V135.951H888.916V138.283ZM879.616 124.366H886.583V122.049H888.916V112.75H886.583V110.433H879.616V112.75H877.299V122.049H879.616V124.366ZM902.817 129H898.183V105.799H902.817V108.116H905.134V105.799H910.942V110.433H905.134V112.75H902.817V129ZM927.208 129H917.924V126.683H915.607V124.366H913.291V119.717H915.607V117.4H920.241V115.083H929.541V112.75H927.208V110.433H920.241V112.75H913.291V110.433H915.607V108.116H917.924V105.799H929.541V108.116H931.857V110.433H934.174V129H929.541V126.683H927.208V129ZM919.083 124.366H927.208V122.049H929.541V117.4H927.208V119.717H919.083V124.366ZM943.442 129H938.808V105.799H943.442V108.116H945.759V105.799H952.725V108.116H957.375V105.799H966.658V108.116H968.975V110.433H971.308V129H966.658V112.75H964.342V110.433H959.692V112.75H957.375V129H952.725V112.75H950.408V110.433H945.759V112.75H943.442V129ZM989.859 129H980.576V126.683H978.259V124.366H975.942V119.717H978.259V117.4H982.893V115.083H992.192V112.75H989.859V110.433H982.893V112.75H975.942V110.433H978.259V108.116H980.576V105.799H992.192V108.116H994.509V110.433H996.826V129H992.192V126.683H989.859V129ZM981.734 124.366H989.859V122.049H992.192V117.4H989.859V119.717H981.734V124.366Z" fill="white"/>
<path d="M1121.95 130H1117.32V97.5H1121.95V130ZM1131.22 130H1126.58V106.799H1131.22V109.116H1133.54V106.799H1141.66V109.116H1143.99V111.433H1146.31V130H1141.66V113.75H1139.34V111.433H1133.54V113.75H1131.22V130ZM1167.21 130H1155.59V127.683H1153.28V125.366H1150.96V123.049H1157.91V125.366H1166.04V120.717H1157.91V118.4H1153.28V116.083H1150.96V111.433H1153.28V109.116H1155.59V106.799H1167.21V109.116H1169.53V111.433H1171.84V113.75H1164.88V111.433H1156.75V116.083H1164.88V118.4H1169.53V120.717H1171.84V125.366H1169.53V127.683H1167.21V130ZM1191.58 130H1179.97V127.683H1177.65V125.366H1175.33V111.433H1177.65V109.116H1179.97V106.799H1191.58V109.116H1193.9V111.433H1196.22V116.083H1191.58V113.75H1189.25V111.433H1182.29V113.75H1179.97V123.049H1182.29V125.366H1189.25V123.049H1191.58V120.717H1196.22V125.366H1193.9V127.683H1191.58V130ZM1205.49 130H1200.85V106.799H1205.49V109.116H1207.8V106.799H1213.61V111.433H1207.8V113.75H1205.49V130ZM1221.74 103.308H1217.1V98.6743H1221.74V103.308ZM1221.74 130H1217.1V106.799H1221.74V130ZM1240.29 139.283H1232.16V136.951H1237.97V134.634H1233.32V132.317H1235.65V130H1231V127.683H1228.69V125.366H1226.37V111.433H1228.69V109.116H1231V106.799H1242.62V109.116H1244.94V111.433H1247.25V116.083H1242.62V113.75H1240.29V111.433H1233.32V113.75H1231V123.049H1233.32V125.366H1240.29V123.049H1242.62V120.717H1247.25V125.366H1244.94V127.683H1242.62V130H1237.97V132.317H1240.29V134.634H1242.62V136.951H1240.29V139.283ZM1268.14 103.308H1261.17V100.991H1256.52V98.6743H1263.49V100.991H1268.14V103.308ZM1270.45 100.991H1268.14V98.6743H1270.45V100.991ZM1256.52 103.308H1254.2V100.991H1256.52V103.308ZM1265.8 130H1256.52V127.683H1254.2V125.366H1251.89V120.717H1254.2V118.4H1258.84V116.083H1268.14V113.75H1265.8V111.433H1258.84V113.75H1251.89V111.433H1254.2V109.116H1256.52V106.799H1268.14V109.116H1270.45V111.433H1272.77V130H1268.14V127.683H1265.8V130ZM1257.68 125.366H1265.8V123.049H1268.14V118.4H1265.8V120.717H1257.68V125.366ZM1293.65 130H1282.04V127.683H1279.72V125.366H1277.4V111.433H1279.72V109.116H1282.04V106.799H1293.65V109.116H1295.97V111.433H1298.29V125.366H1295.97V127.683H1293.65V130ZM1284.36 125.366H1291.32V123.049H1293.65V113.75H1291.32V111.433H1284.36V113.75H1282.04V123.049H1284.36V125.366Z" fill="white"/>
<path d="M1440.2 130H1426.27V127.683H1423.95V125.366H1421.63V123.049H1419.32V104.467H1421.63V102.15H1423.95V99.8328H1426.27V97.5H1440.2V99.8328H1442.52V102.15H1444.85V104.467H1447.17V109.116H1442.52V106.799H1440.2V104.467H1437.88V102.15H1428.6V104.467H1426.27V106.799H1423.95V120.717H1426.27V123.049H1428.6V125.366H1437.88V123.049H1440.2V120.717H1442.52V118.4H1447.17V123.049H1444.85V125.366H1442.52V127.683H1440.2V130ZM1468.07 130H1456.45V127.683H1454.13V125.366H1451.82V111.433H1454.13V109.116H1456.45V106.799H1468.07V109.116H1470.38V111.433H1472.7V125.366H1470.38V127.683H1468.07V130ZM1458.77 125.366H1465.73V123.049H1468.07V113.75H1465.73V111.433H1458.77V113.75H1456.45V123.049H1458.77V125.366ZM1481.97 130H1477.33V106.799H1481.97V109.116H1484.29V106.799H1492.41V109.116H1494.74V111.433H1497.06V130H1492.41V113.75H1490.09V111.433H1484.29V113.75H1481.97V130ZM1512.17 130H1505.2V127.683H1502.88V110.275H1499.41V106.799H1502.88V99.8328H1507.53V106.799H1512.17V110.275H1507.53V125.366H1512.17V130ZM1529.59 130H1520.31V127.683H1517.99V125.366H1515.67V120.717H1517.99V118.4H1522.62V116.083H1531.92V113.75H1529.59V111.433H1522.62V113.75H1515.67V111.433H1517.99V109.116H1520.31V106.799H1531.92V109.116H1534.24V111.433H1536.56V130H1531.92V127.683H1529.59V130ZM1521.47 125.366H1529.59V123.049H1531.92V118.4H1529.59V120.717H1521.47V125.366ZM1557.44 130H1545.83V127.683H1543.51V125.366H1541.19V111.433H1543.51V109.116H1545.83V106.799H1557.44V109.116H1559.76V111.433H1562.08V116.083H1557.44V113.75H1555.11V111.433H1548.14V113.75H1545.83V123.049H1548.14V125.366H1555.11V123.049H1557.44V120.717H1562.08V125.366H1559.76V127.683H1557.44V130ZM1577.17 130H1570.2V127.683H1567.88V110.275H1564.41V106.799H1567.88V99.8328H1572.53V106.799H1577.17V110.275H1572.53V125.366H1577.17V130ZM1596.92 130H1585.31V127.683H1582.99V125.366H1580.67V111.433H1582.99V109.116H1585.31V106.799H1596.92V109.116H1599.24V111.433H1601.56V125.366H1599.24V127.683H1596.92V130ZM1587.62 125.366H1594.59V123.049H1596.92V113.75H1594.59V111.433H1587.62V113.75H1585.31V123.049H1587.62V125.366ZM1621.3 130H1609.68V127.683H1607.37V125.366H1605.05V123.049H1612V125.366H1620.12V120.717H1612V118.4H1607.37V116.083H1605.05V111.433H1607.37V109.116H1609.68V106.799H1621.3V109.116H1623.62V111.433H1625.93V113.75H1618.97V111.433H1610.84V116.083H1618.97V118.4H1623.62V120.717H1625.93V125.366H1623.62V127.683H1621.3V130Z" fill="white"/>
<path d="M1709.95 130H1705.32V123.049H1707.63V116.083H1709.95V109.116H1712.27V102.15H1714.6V97.5H1721.57V102.15H1723.88V109.116H1726.2V116.083H1728.52V123.049H1730.85V130H1726.2V123.049H1709.95V130ZM1712.27 118.4H1723.88V116.083H1721.57V109.116H1719.23V104.467H1716.92V109.116H1714.6V116.083H1712.27V118.4ZM1740.1 130H1735.47V106.799H1740.1V109.116H1742.42V106.799H1748.23V111.433H1742.42V113.75H1740.1V130ZM1771.46 139.283H1766.83V127.683H1764.49V130H1755.21V127.683H1752.89V125.366H1750.58V111.433H1752.89V109.116H1755.21V106.799H1764.49V109.116H1766.83V106.799H1771.46V139.283ZM1757.53 125.366H1764.49V123.049H1766.83V113.75H1764.49V111.433H1757.53V113.75H1755.21V123.049H1757.53V125.366ZM1788.85 130H1780.73V127.683H1778.41V125.366H1776.09V106.799H1780.73V123.049H1783.04V125.366H1788.85V123.049H1791.17V106.799H1795.82V130H1791.17V127.683H1788.85V130ZM1805.1 103.308H1800.47V98.6743H1805.1V103.308ZM1805.1 130H1800.47V106.799H1805.1V130ZM1822.49 130H1817.86V125.366H1815.53V120.717H1813.21V116.083H1810.89V111.433H1808.58V106.799H1813.21V111.433H1815.53V116.083H1817.86V120.717H1822.49V116.083H1824.83V111.433H1827.14V106.799H1831.78V111.433H1829.46V116.083H1827.14V120.717H1824.83V125.366H1822.49V130ZM1850.36 130H1838.74V127.683H1836.43V125.366H1834.11V111.433H1836.43V109.116H1838.74V106.799H1850.36V109.116H1852.68V111.433H1854.99V125.366H1852.68V127.683H1850.36V130ZM1841.06 125.366H1848.03V123.049H1850.36V113.75H1848.03V111.433H1841.06V113.75H1838.74V123.049H1841.06V125.366ZM1874.74 130H1863.12V127.683H1860.8V125.366H1858.49V123.049H1865.44V125.366H1873.56V120.717H1865.44V118.4H1860.8V116.083H1858.49V111.433H1860.8V109.116H1863.12V106.799H1874.74V109.116H1877.05V111.433H1879.37V113.75H1872.4V111.433H1864.28V116.083H1872.4V118.4H1877.05V120.717H1879.37V125.366H1877.05V127.683H1874.74V130Z" fill="white"/>
</svg>
